<svg width="450" height="254" viewBox="0 0 450 254" fill="none" xmlns="http://www.w3.org/2000/svg">
<g clip-path="url(#clip0_253_2)">
<path fill-rule="evenodd" clip-rule="evenodd" d="M0.505493 45.1131L450 45.1132V44.6073L0.505493 44.6072V45.1131Z" fill="url(#paint0_linear_253_2)" fill-opacity="0.3"/>
<path fill-rule="evenodd" clip-rule="evenodd" d="M205.546 253.529V-2.28671e-05L205.04 -2.28882e-05V253.529H205.546Z" fill="url(#paint1_linear_253_2)" fill-opacity="0.3"/>
<path fill-rule="evenodd" clip-rule="evenodd" d="M0.505493 97.2164L450 97.2165V96.7106H0.505493V97.2164Z" fill="url(#paint2_linear_253_2)" fill-opacity="0.3"/>
<path fill-rule="evenodd" clip-rule="evenodd" d="M256.806 253.529V-1.52377e-05L256.3 -1.52588e-05V253.529H256.806Z" fill="url(#paint3_linear_253_2)" fill-opacity="0.3"/>
<path fill-rule="evenodd" clip-rule="evenodd" d="M0.505859 253.529L0.505881 2.11003e-08L2.21642e-05 0L0 253.529H0.505859Z" fill="url(#paint4_linear_253_2)" fill-opacity="0.3"/>
<path fill-rule="evenodd" clip-rule="evenodd" d="M0.505493 149.321H450V148.815H0.505493V149.321Z" fill="url(#paint5_linear_253_2)" fill-opacity="0.3"/>
<path fill-rule="evenodd" clip-rule="evenodd" d="M308.066 253.529V-1.52377e-05L307.56 -1.52588e-05V253.529H308.066Z" fill="url(#paint6_linear_253_2)" fill-opacity="0.3"/>
<path fill-rule="evenodd" clip-rule="evenodd" d="M51.7662 253.529V-3.81259e-05L51.2603 -3.8147e-05V253.529H51.7662Z" fill="url(#paint7_linear_253_2)" fill-opacity="0.3"/>
<path fill-rule="evenodd" clip-rule="evenodd" d="M0.505493 201.424H450V200.918H0.505493V201.424Z" fill="url(#paint8_linear_253_2)" fill-opacity="0.3"/>
<path fill-rule="evenodd" clip-rule="evenodd" d="M359.326 253.529V-7.60829e-06L358.82 -7.62939e-06V253.529H359.326Z" fill="url(#paint9_linear_253_2)" fill-opacity="0.3"/>
<path fill-rule="evenodd" clip-rule="evenodd" d="M103.026 253.529V-3.04965e-05L102.52 -3.05176e-05V253.529H103.026Z" fill="url(#paint10_linear_253_2)" fill-opacity="0.3"/>
<path fill-rule="evenodd" clip-rule="evenodd" d="M410.586 253.529V2.11101e-08L410.08 0V253.529H410.586Z" fill="url(#paint11_linear_253_2)" fill-opacity="0.3"/>
<path fill-rule="evenodd" clip-rule="evenodd" d="M154.286 253.529V-2.28671e-05L153.78 -2.28882e-05V253.529H154.286Z" fill="url(#paint12_linear_253_2)" fill-opacity="0.3"/>
<path d="M308.067 45.1138L358.821 45.1138L358.821 96.712L308.067 96.712L308.067 45.1138Z" fill="#66A1FF" fill-opacity="0.25"/>
<path d="M256.803 97.2163L307.559 97.2163L307.559 148.815L256.803 148.815L256.803 97.2163Z" fill="#66A1FF" fill-opacity="0.25"/>
</g>
<defs>
<linearGradient id="paint0_linear_253_2" x1="277.872" y1="-4.79082e-05" x2="194.87" y2="235.867" gradientUnits="userSpaceOnUse">
<stop stop-color="#B2B2B2"/>
<stop offset="1" stop-color="#B2B2B2" stop-opacity="0"/>
</linearGradient>
<linearGradient id="paint1_linear_253_2" x1="277.874" y1="-1.31524e-05" x2="194.873" y2="235.868" gradientUnits="userSpaceOnUse">
<stop stop-color="#B2B2B2"/>
<stop offset="1" stop-color="#B2B2B2" stop-opacity="0"/>
</linearGradient>
<linearGradient id="paint2_linear_253_2" x1="277.872" y1="0.000463575" x2="194.871" y2="235.867" gradientUnits="userSpaceOnUse">
<stop stop-color="#B2B2B2"/>
<stop offset="1" stop-color="#B2B2B2" stop-opacity="0"/>
</linearGradient>
<linearGradient id="paint3_linear_253_2" x1="277.873" y1="-6.55667e-06" x2="194.872" y2="235.868" gradientUnits="userSpaceOnUse">
<stop stop-color="#B2B2B2"/>
<stop offset="1" stop-color="#B2B2B2" stop-opacity="0"/>
</linearGradient>
<linearGradient id="paint4_linear_253_2" x1="277.872" y1="2.92446e-05" x2="194.87" y2="235.867" gradientUnits="userSpaceOnUse">
<stop stop-color="#B2B2B2"/>
<stop offset="1" stop-color="#B2B2B2" stop-opacity="0"/>
</linearGradient>
<linearGradient id="paint5_linear_253_2" x1="277.872" y1="0.000967044" x2="194.871" y2="235.867" gradientUnits="userSpaceOnUse">
<stop stop-color="#B2B2B2"/>
<stop offset="1" stop-color="#B2B2B2" stop-opacity="0"/>
</linearGradient>
<linearGradient id="paint6_linear_253_2" x1="277.871" y1="-1.25376e-05" x2="194.871" y2="235.868" gradientUnits="userSpaceOnUse">
<stop stop-color="#B2B2B2"/>
<stop offset="1" stop-color="#B2B2B2" stop-opacity="0"/>
</linearGradient>
<linearGradient id="paint7_linear_253_2" x1="277.873" y1="-1.57874e-05" x2="194.871" y2="235.867" gradientUnits="userSpaceOnUse">
<stop stop-color="#B2B2B2"/>
<stop offset="1" stop-color="#B2B2B2" stop-opacity="0"/>
</linearGradient>
<linearGradient id="paint8_linear_253_2" x1="277.872" y1="0.00128415" x2="194.871" y2="235.867" gradientUnits="userSpaceOnUse">
<stop stop-color="#B2B2B2"/>
<stop offset="1" stop-color="#B2B2B2" stop-opacity="0"/>
</linearGradient>
<linearGradient id="paint9_linear_253_2" x1="277.875" y1="-8.05736e-06" x2="194.871" y2="235.865" gradientUnits="userSpaceOnUse">
<stop stop-color="#B2B2B2"/>
<stop offset="1" stop-color="#B2B2B2" stop-opacity="0"/>
</linearGradient>
<linearGradient id="paint10_linear_253_2" x1="277.874" y1="-1.69572e-05" x2="194.872" y2="235.867" gradientUnits="userSpaceOnUse">
<stop stop-color="#B2B2B2"/>
<stop offset="1" stop-color="#B2B2B2" stop-opacity="0"/>
</linearGradient>
<linearGradient id="paint11_linear_253_2" x1="277.869" y1="-3.42376e-06" x2="194.868" y2="235.868" gradientUnits="userSpaceOnUse">
<stop stop-color="#B2B2B2"/>
<stop offset="1" stop-color="#B2B2B2" stop-opacity="0"/>
</linearGradient>
<linearGradient id="paint12_linear_253_2" x1="277.871" y1="-8.05017e-06" x2="194.869" y2="235.867" gradientUnits="userSpaceOnUse">
<stop stop-color="#B2B2B2"/>
<stop offset="1" stop-color="#B2B2B2" stop-opacity="0"/>
</linearGradient>
<clipPath id="clip0_253_2">
<rect width="450" height="254" fill="white"/>
</clipPath>
</defs>
</svg>
