<svg width="472" height="158" viewBox="0 0 472 158" fill="none" xmlns="http://www.w3.org/2000/svg">
<g clip-path="url(#clip0_235_40)">
<path d="M222.832 15.167H166.937C159.112 15.167 152.769 27.703 152.769 43.167V117.478C152.769 132.942 159.112 145.478 166.937 145.478H222.832C230.657 145.478 237 132.942 237 117.478V43.167C237 27.703 230.657 15.167 222.832 15.167Z" stroke="#66A1FF" stroke-width="24"/>
<path d="M26.4033 0.522461H6.30324C2.84444 0.522461 0.0405273 3.32637 0.0405273 6.78517V71.8555C0.0405273 75.3143 2.84444 78.1182 6.30324 78.1182H26.4033C29.8621 78.1182 32.666 75.3143 32.666 71.8555V6.78517C32.666 3.32637 29.8621 0.522461 26.4033 0.522461Z" fill="#66A1FF"/>
<path d="M26.4033 0.522461H6.30324C2.84444 0.522461 0.0405273 3.32637 0.0405273 6.78517V71.8555C0.0405273 75.3143 2.84444 78.1182 6.30324 78.1182H26.4033C29.8621 78.1182 32.666 75.3143 32.666 71.8555V6.78517C32.666 3.32637 29.8621 0.522461 26.4033 0.522461Z" stroke="#66A1FF"/>
<path d="M102.235 3.16797H82.1353C78.6765 3.16797 75.8726 5.97188 75.8726 9.43068V151.215C75.8726 154.674 78.6765 157.478 82.1353 157.478H102.235C105.694 157.478 108.498 154.674 108.498 151.215V9.43068C108.498 5.97188 105.694 3.16797 102.235 3.16797Z" fill="#66A1FF"/>
<path d="M102.235 3.16797H82.1353C78.6765 3.16797 75.8726 5.97188 75.8726 9.43068V151.215C75.8726 154.674 78.6765 157.478 82.1353 157.478H102.235C105.694 157.478 108.498 154.674 108.498 151.215V9.43068C108.498 5.97188 105.694 3.16797 102.235 3.16797Z" stroke="#66A1FF"/>
<path d="M14.1493 64.981L14.1493 85.0811C14.1493 88.5399 16.9532 91.3438 20.412 91.3438H85.4823C88.9411 91.3438 91.745 88.5399 91.745 85.0811V64.981C91.745 61.5222 88.9411 58.7183 85.4823 58.7183L20.412 58.7183C16.9532 58.7183 14.1493 61.5222 14.1493 64.981Z" fill="#66A1FF"/>
<path d="M16.7939 64.981V85.0811C16.7939 88.5399 19.5978 91.3438 23.0566 91.3438H88.1269C91.5857 91.3438 94.3896 88.5399 94.3896 85.0811V64.981C94.3896 61.5222 91.5857 58.7183 88.1269 58.7183L23.0566 58.7183C19.5978 58.7183 16.7939 61.5222 16.7939 64.981Z" stroke="#66A1FF"/>
<path d="M298.865 0.522461H278.765C275.306 0.522461 272.502 3.32637 272.502 6.78517V71.8555C272.502 75.3143 275.306 78.1182 278.765 78.1182H298.865C302.324 78.1182 305.128 75.3143 305.128 71.8555V6.78517C305.128 3.32637 302.324 0.522461 298.865 0.522461Z" fill="#66A1FF"/>
<path d="M298.865 0.522461H278.765C275.306 0.522461 272.502 3.32637 272.502 6.78517V71.8555C272.502 75.3143 275.306 78.1182 278.765 78.1182H298.865C302.324 78.1182 305.128 75.3143 305.128 71.8555V6.78517C305.128 3.32637 302.324 0.522461 298.865 0.522461Z" stroke="#66A1FF"/>
<path d="M374.697 3.16797H354.597C351.138 3.16797 348.334 5.97188 348.334 9.43068V151.215C348.334 154.674 351.138 157.478 354.597 157.478H374.697C378.156 157.478 380.96 154.674 380.96 151.215V9.43068C380.96 5.97188 378.156 3.16797 374.697 3.16797Z" fill="#66A1FF"/>
<path d="M374.697 3.16797H354.597C351.138 3.16797 348.334 5.97188 348.334 9.43068V151.215C348.334 154.674 351.138 157.478 354.597 157.478H374.697C378.156 157.478 380.96 154.674 380.96 151.215V9.43068C380.96 5.97188 378.156 3.16797 374.697 3.16797Z" stroke="#66A1FF"/>
<path d="M289.255 64.981V85.0811C289.255 88.5399 292.059 91.3438 295.518 91.3438H360.588C364.047 91.3438 366.851 88.5399 366.851 85.0811V64.981C366.851 61.5222 364.047 58.7183 360.588 58.7183L295.518 58.7183C292.059 58.7183 289.255 61.5222 289.255 64.981Z" fill="#66A1FF"/>
<path d="M289.255 64.981V85.0811C289.255 88.5399 292.059 91.3438 295.518 91.3438H360.588C364.047 91.3438 366.851 88.5399 366.851 85.0811V64.981C366.851 61.5222 364.047 58.7183 360.588 58.7183L295.518 58.7183C292.059 58.7183 289.255 61.5222 289.255 64.981Z" stroke="#66A1FF"/>
</g>
<defs>
<clipPath id="clip0_235_40">
<rect width="472" height="158" fill="white"/>
</clipPath>
</defs>
</svg>
