<svg width="204" height="212" viewBox="0 0 204 212" fill="none" xmlns="http://www.w3.org/2000/svg">
<path fill-rule="evenodd" clip-rule="evenodd" d="M15.6482 188.189C18.5949 193.293 25.1227 195.041 30.2265 192.094C37.3385 187.988 46.2313 193.119 46.2313 201.332C46.2313 207.224 51.0076 212 56.8994 212H78.6993C84.5925 212 89.3699 207.222 89.3699 201.328C89.3699 193.115 98.2611 187.981 105.374 192.087C110.477 195.033 117.002 193.285 119.948 188.182L130.849 169.301C133.795 164.199 132.045 157.674 126.943 154.728C119.834 150.624 119.831 140.361 126.939 136.257C132.039 133.312 133.787 126.791 130.842 121.691L119.937 102.803C116.992 97.7015 110.469 95.9536 105.368 98.8989C98.2579 103.004 89.3699 97.8696 89.3699 89.6591C89.3699 83.7671 84.5935 78.989 78.7015 78.989H56.8972C51.0066 78.989 46.2313 83.7643 46.2313 89.6549C46.2313 97.8656 37.3419 102.997 30.2313 98.8913C25.1293 95.9456 18.6048 97.6934 15.6592 102.795L4.75815 121.676C1.81184 126.78 3.56031 133.305 8.66347 136.251C15.7765 140.358 15.7729 150.627 8.65984 154.734C3.55486 157.681 1.80367 164.21 4.75103 169.315L15.6482 188.189ZM67.7988 168.982C80.7616 168.982 91.27 158.474 91.27 145.511C91.27 132.548 80.7616 122.04 67.7988 122.04C54.8361 122.04 44.3277 132.548 44.3277 145.511C44.3277 158.474 54.8361 168.982 67.7988 168.982Z" fill="#66A1FF"/>
<path fill-rule="evenodd" clip-rule="evenodd" d="M87.9497 54.4633C87.7793 57.7001 90.2662 60.4623 93.5031 60.6326C98.0137 60.8699 100.577 65.9012 98.1166 69.6888C96.3512 72.4061 97.1228 76.0402 99.8401 77.8057L109.894 84.338C112.612 86.1039 116.247 85.3317 118.013 82.6138C120.474 78.8257 126.114 79.1219 128.164 83.1473C129.634 86.0353 133.168 87.1842 136.056 85.7134L146.741 80.2718C149.628 78.8014 150.776 75.2676 149.306 72.3803C147.257 68.3572 150.331 63.6229 154.839 63.8601C158.074 64.0303 160.834 61.5462 161.004 58.3117L161.634 46.3329C161.805 43.0976 159.32 40.3368 156.085 40.1666C151.575 39.9293 149.015 34.8979 151.475 31.1112C153.24 28.3938 152.469 24.7589 149.752 22.9933L139.696 16.4597C136.979 14.6946 133.345 15.4661 131.58 18.1828C129.12 21.9696 123.483 21.6724 121.433 17.6483C119.963 14.761 116.43 13.612 113.543 15.0824L102.857 20.5239C99.9696 21.9947 98.8207 25.5282 100.291 28.4162C102.341 32.4416 99.2627 37.1766 94.7516 36.9392C91.514 36.7688 88.7499 39.2553 88.5796 42.4929L87.9497 54.4633ZM117.757 61.2316C123.736 65.1159 131.731 63.4182 135.615 57.4397C139.499 51.4612 137.802 43.4658 131.823 39.5816C125.845 35.6973 117.849 37.395 113.965 43.3735C110.081 49.352 111.779 57.3473 117.757 61.2316Z" fill="#66A1FF"/>
<path fill-rule="evenodd" clip-rule="evenodd" d="M157.997 100.165C158.662 102.06 160.738 103.056 162.633 102.39C165.273 101.463 167.929 103.741 167.412 106.492C167.041 108.465 168.34 110.365 170.313 110.736L177.614 112.108C179.587 112.479 181.488 111.18 181.859 109.206C182.376 106.455 185.677 105.296 187.801 107.119C189.324 108.427 191.62 108.252 192.928 106.728L197.767 101.091C199.075 99.568 198.899 97.2725 197.376 95.9649C195.254 94.1428 195.899 90.7056 198.538 89.7786C200.431 89.1135 201.427 87.0394 200.762 85.146L198.299 78.1339C197.634 76.2401 195.559 75.2441 193.665 75.9093C191.025 76.8366 188.372 74.5575 188.889 71.8078C189.26 69.8346 187.961 67.9337 185.988 67.5628L178.685 66.1902C176.713 65.8193 174.813 67.118 174.442 69.0908C173.925 71.8405 170.625 72.9993 168.502 71.1768C166.979 69.8691 164.684 70.0437 163.376 71.567L158.537 77.2041C157.229 78.7276 157.403 81.0231 158.927 82.3311C161.051 84.1542 160.403 87.593 157.762 88.5206C155.867 89.1863 154.87 91.2626 155.535 93.1578L157.997 100.165ZM176.671 97.0153C181.012 97.8313 185.193 94.9735 186.009 90.6323C186.825 86.291 183.968 82.1102 179.626 81.2942C175.285 80.4782 171.104 83.3359 170.288 87.6772C169.472 92.0185 172.33 96.1993 176.671 97.0153Z" fill="#66A1FF"/>
</svg>
