<svg xmlns="http://www.w3.org/2000/svg" width="1080" height="1920" viewBox="0 0 1080 1920">
<defs>
<linearGradient id="hero" x1="0%" y1="0%" x2="100%" y2="100%">
<stop offset="0%" stop-color="#0F766E"/>
<stop offset="52%" stop-color="#2563EB"/>
<stop offset="100%" stop-color="#16A34A"/>
</linearGradient>
<linearGradient id="pageGrad" x1="0%" y1="0%" x2="100%" y2="100%">
<stop offset="0%" stop-color="#F6FAFD"/>
<stop offset="100%" stop-color="#EAF5F2"/>
</linearGradient>

</defs>
<rect x="0.0" y="0.0" width="1080.0" height="1920.0" rx="0.0" fill="#F4F8FB"/>
<rect x="0.0" y="0.0" width="226.8" height="1920.0" rx="0.0" fill="#FFFFFF" stroke="#E2E8F0" stroke-width="0.9"/>
<rect x="30.6" y="43.2" width="52.2" height="52.2" rx="11.5" fill="#0F766E"/>
<circle cx="68.2" cy="57.8" r="8.4" fill="#FFFFFF" opacity="0.22"/>
<text x="56.7" y="77.7" font-size="24.0" font-family="Arial" font-weight="700" text-anchor="middle" fill="#FFFFFF">A</text>
<text x="95.4" y="77.4" font-size="22.5" font-family="Arial" font-weight="700" text-anchor="start" fill="#0F766E">AltuHealth</text>
<rect x="21.6" y="154.8" width="183.6" height="48.6" rx="16.2" fill="#FFFFFF"/>
<text x="48.6" y="187.2" font-size="18.0" font-family="Arial" font-weight="500" text-anchor="start" fill="#64748B">Home</text>
<rect x="21.6" y="219.6" width="183.6" height="48.6" rx="16.2" fill="#FFFFFF"/>
<text x="48.6" y="252.0" font-size="18.0" font-family="Arial" font-weight="500" text-anchor="start" fill="#64748B">History</text>
<rect x="21.6" y="284.4" width="183.6" height="48.6" rx="16.2" fill="#FFFFFF"/>
<text x="48.6" y="316.8" font-size="18.0" font-family="Arial" font-weight="500" text-anchor="start" fill="#64748B">Visits</text>
<rect x="21.6" y="349.2" width="183.6" height="48.6" rx="16.2" fill="#DDF5EF"/>
<text x="48.6" y="381.6" font-size="18.0" font-family="Arial" font-weight="700" text-anchor="start" fill="#0F766E">Benefits</text>
<rect x="21.6" y="414.0" width="183.6" height="48.6" rx="16.2" fill="#FFFFFF"/>
<text x="48.6" y="446.4" font-size="18.0" font-family="Arial" font-weight="500" text-anchor="start" fill="#64748B">More</text>
<text x="30.6" y="1855.2" font-size="16.2" font-family="Arial" font-weight="600" text-anchor="start" fill="#64748B">Member app</text>
<text x="273.6" y="113.4" font-size="41.4" font-family="Arial" font-weight="700" text-anchor="start" fill="#0F172A">Benefits</text>
<text x="273.6" y="153.0" font-size="19.8" font-family="Arial" font-weight="500" text-anchor="start" fill="#64748B">Monitor your plan limits and covered services</text>
<rect x="273.6" y="201.6" width="440.6" height="192.6" rx="27.0" fill="#FFFFFF" stroke="#D5E3EA" stroke-width="1.26"/>
<text x="300.6" y="257.4" font-size="25.2" font-family="Arial" font-weight="600" text-anchor="start" fill="#64748B">Annual coverage</text>
<text x="300.6" y="320.4" font-size="46.8" font-family="Arial" font-weight="700" text-anchor="start" fill="#0F172A">N1,250,000</text>
<text x="300.6" y="360.0" font-size="21.6" font-family="Arial" font-weight="700" text-anchor="start" fill="#16A34A">72% available</text>
<circle cx="627.8" cy="298.8" r="46.8" fill="#16A34A" opacity="0.16"/>
<text x="627.8" y="309.6" font-size="25.2" font-family="Arial" font-weight="700" text-anchor="middle" fill="#16A34A">72%</text>
<rect x="273.6" y="426.6" width="440.6" height="127.8" rx="21.6" fill="#FFFFFF" stroke="#D5E3EA" stroke-width="1.26"/>
<text x="297.0" y="468.0" font-size="23.4" font-family="Arial" font-weight="700" text-anchor="start" fill="#0F172A">Outpatient care</text>
<text x="297.0" y="500.4" font-size="18.0" font-family="Arial" font-weight="500" text-anchor="start" fill="#64748B">8 of 12 visits remaining</text>
<rect x="297.0" y="521.1" width="393.8" height="12.6" rx="6.3" fill="#E7EEF4"/>
<rect x="297.0" y="521.1" width="259.9" height="12.6" rx="6.3" fill="#0F766E"/>
<rect x="273.6" y="574.2" width="440.6" height="127.8" rx="21.6" fill="#FFFFFF" stroke="#D5E3EA" stroke-width="1.26"/>
<text x="297.0" y="615.6" font-size="23.4" font-family="Arial" font-weight="700" text-anchor="start" fill="#0F172A">Medication</text>
<text x="297.0" y="648.0" font-size="18.0" font-family="Arial" font-weight="500" text-anchor="start" fill="#64748B">N180,000 remaining</text>
<rect x="297.0" y="668.7" width="393.8" height="12.6" rx="6.3" fill="#E7EEF4"/>
<rect x="297.0" y="668.7" width="283.5" height="12.6" rx="6.3" fill="#2563EB"/>
<rect x="273.6" y="721.8" width="440.6" height="127.8" rx="21.6" fill="#FFFFFF" stroke="#D5E3EA" stroke-width="1.26"/>
<text x="297.0" y="763.2" font-size="23.4" font-family="Arial" font-weight="700" text-anchor="start" fill="#0F172A">Dental</text>
<text x="297.0" y="795.6" font-size="18.0" font-family="Arial" font-weight="500" text-anchor="start" fill="#64748B">2 cleanings remaining</text>
<rect x="297.0" y="816.3" width="393.8" height="12.6" rx="6.3" fill="#E7EEF4"/>
<rect x="297.0" y="816.3" width="196.9" height="12.6" rx="6.3" fill="#F59E0B"/>
<text x="739.4" y="203.4" font-size="23.4" font-family="Arial" font-weight="700" text-anchor="start" fill="#0F172A">Summary</text>
<rect x="739.4" y="232.2" width="293.8" height="135.0" rx="21.6" fill="#FFFFFF" stroke="#D5E3EA" stroke-width="1.26"/>
<circle cx="777.2" cy="273.6" r="16.2" fill="#0F766E" opacity="0.16"/>
<text x="764.6" y="318.6" font-size="34.2" font-family="Arial" font-weight="700" text-anchor="start" fill="#0F172A">Gold HMO</text>
<text x="764.6" y="351.0" font-size="19.8" font-family="Arial" font-weight="500" text-anchor="start" fill="#64748B">Active plan</text>
<rect x="739.4" y="385.2" width="293.8" height="135.0" rx="21.6" fill="#FFFFFF" stroke="#D5E3EA" stroke-width="1.26"/>
<circle cx="777.2" cy="426.6" r="16.2" fill="#2563EB" opacity="0.16"/>
<text x="764.6" y="471.6" font-size="34.2" font-family="Arial" font-weight="700" text-anchor="start" fill="#0F172A">42 clinics</text>
<text x="764.6" y="504.0" font-size="19.8" font-family="Arial" font-weight="500" text-anchor="start" fill="#64748B">Provider network</text>
<rect x="739.4" y="538.2" width="293.8" height="135.0" rx="21.6" fill="#FFFFFF" stroke="#D5E3EA" stroke-width="1.26"/>
<circle cx="777.2" cy="579.6" r="16.2" fill="#16A34A" opacity="0.16"/>
<text x="764.6" y="624.6" font-size="34.2" font-family="Arial" font-weight="700" text-anchor="start" fill="#0F172A">24/7</text>
<text x="764.6" y="657.0" font-size="19.8" font-family="Arial" font-weight="500" text-anchor="start" fill="#64748B">Support</text>
<rect x="739.4" y="711.0" width="293.8" height="208.8" rx="25.2" fill="#FFFFFF" stroke="#D5E3EA" stroke-width="1.26"/>
<text x="764.6" y="759.6" font-size="21.6" font-family="Arial" font-weight="700" text-anchor="start" fill="#0F172A">Today</text>
<text x="764.6" y="799.2" font-size="19.8" font-family="Arial" font-weight="600" text-anchor="start" fill="#64748B">General consultation</text>
<text x="764.6" y="833.4" font-size="18.0" font-family="Arial" font-weight="500" text-anchor="start" fill="#64748B">10:30 AM • Mainland Care Clinic</text>
<rect x="764.6" y="867.6" width="243.4" height="37.8" rx="18.9" fill="#EAF7F3"/>
<text x="886.3" y="892.8" font-size="16.2" font-family="Arial" font-weight="700" text-anchor="middle" fill="#0F766E">Ready for check-in</text>
</svg>
